# xmcd
#
# Track frame offsets:
#	150
#	13657
#	32515
#	51469
#	68528
#	90186
#	111551
#	132597
#	153624
#	169189
#
# Disc length: 2497 seconds
# Revision: 0
# Processed by: cddbd v1.5.2PL0 Copyright (c) Steve Scherf et al.
# Submitted via: dBpowerAMP V12.0
#
DISCID=8209bf0a
DTITLE=Amand Lyon - My Celtic Soul
DYEAR=2015
DGENRE=Soul
TTITLE0=Ain't No Sunshine
TTITLE1=Wishing Well
TTITLE2=Need Your Love So Bad
TTITLE3=I Don't Know Why I Love You
TTITLE4=Easy
TTITLE5=Let's Get It On
TTITLE6=Love's In Need Of Love Today
TTITLE7=Always And Forever
TTITLE8=I've Been Loving You Too Long
TTITLE9=When We're Together It's Magic
EXTD=
EXTT0=
EXTT1=
EXTT2=
EXTT3=
EXTT4=
EXTT5=
EXTT6=
EXTT7=
EXTT8=
EXTT9=
PLAYORDER=
